<?xml version="1.0" encoding="UTF-8" standalone="no"?>
<!-- Generator: Adobe Illustrator 19.0.0, SVG Export Plug-In . SVG Version: 6.00 Build 0)  -->

<svg
   xmlns:dc="http://purl.org/dc/elements/1.1/"
   xmlns:cc="http://creativecommons.org/ns#"
   xmlns:rdf="http://www.w3.org/1999/02/22-rdf-syntax-ns#"
   xmlns:svg="http://www.w3.org/2000/svg"
   xmlns="http://www.w3.org/2000/svg"
   xmlns:sodipodi="http://sodipodi.sourceforge.net/DTD/sodipodi-0.dtd"
   xmlns:inkscape="http://www.inkscape.org/namespaces/inkscape"
   version="1.1"
   id="Capa_1"
   x="0px"
   y="0px"
   viewBox="0 0 440.09 440.09"
   xml:space="preserve"
   inkscape:version="0.48.5 r10040"
   width="100%"
   height="100%"
   sodipodi:docname="user-picture.svg"><metadata
     id="metadata43"><rdf:RDF><cc:Work
         rdf:about=""><dc:format>image/svg+xml</dc:format><dc:type
           rdf:resource="http://purl.org/dc/dcmitype/StillImage" /></cc:Work></rdf:RDF></metadata><defs
     id="defs41" /><sodipodi:namedview
     pagecolor="#ffffff"
     bordercolor="#666666"
     borderopacity="1"
     objecttolerance="10"
     gridtolerance="10"
     guidetolerance="10"
     inkscape:pageopacity="0"
     inkscape:pageshadow="2"
     inkscape:window-width="1366"
     inkscape:window-height="706"
     id="namedview39"
     showgrid="false"
     inkscape:zoom="0.3935783"
     inkscape:cx="-496.54883"
     inkscape:cy="-71.532693"
     inkscape:window-x="0"
     inkscape:window-y="27"
     inkscape:window-maximized="1"
     inkscape:current-layer="Capa_1" /><path
     style="fill:#e7eced"
     d="m 141.39315,328.08438 -79.57681,42.18083 c -4.66974,2.47432 -8.866468,5.51588 -12.771338,8.83128 46.395485,38.01459 106.286918,60.94851 171.723678,60.94851 64.95367,0 124.46267,-22.59164 170.72732,-60.08788 -4.26717,-3.50121 -8.89665,-6.65034 -14.02934,-9.13446 l -85.21271,-41.39843 c -11.01012,-5.34962 -17.96442,-16.28358 -17.96442,-28.24443 v -32.48893 c 2.39526,-2.65036 5.13269,-6.05377 8.06135,-10.07333 11.61397,-15.94128 20.39993,-33.47669 26.4887,-51.87273 10.92961,-3.27628 18.98088,-13.08555 18.98088,-24.74323 v -34.67962 c 0,-7.62835 -3.49223,-14.44496 -8.91678,-19.21756 V 77.97249 c 0,0 10.59749,-78.01449366 -98.12494,-78.01449366 -108.72243,0 -98.12494,78.01449366 -98.12494,78.01449366 v 50.13191 c -5.43461,4.7726 -8.91679,11.58921 -8.91679,19.21756 v 34.67962 c 0,9.13446 4.94148,17.17356 12.33859,21.81903 8.91678,37.72118 32.26548,64.87026 32.26548,64.87026 v 31.68698 c -0.0101,11.54031 -6.51146,22.17109 -16.94793,27.70653 z"
     id="path3"
     inkscape:connector-curvature="0" /><g
     id="g9"
     transform="translate(0,387.09)" /><g
     id="g11"
     transform="translate(0,387.09)" /><g
     id="g13"
     transform="translate(0,387.09)" /><g
     id="g15"
     transform="translate(0,387.09)" /><g
     id="g17"
     transform="translate(0,387.09)" /><g
     id="g19"
     transform="translate(0,387.09)" /><g
     id="g21"
     transform="translate(0,387.09)" /><g
     id="g23"
     transform="translate(0,387.09)" /><g
     id="g25"
     transform="translate(0,387.09)" /><g
     id="g27"
     transform="translate(0,387.09)" /><g
     id="g29"
     transform="translate(0,387.09)" /><g
     id="g31"
     transform="translate(0,387.09)" /><g
     id="g33"
     transform="translate(0,387.09)" /><g
     id="g35"
     transform="translate(0,387.09)" /><g
     id="g37"
     transform="translate(0,387.09)" /></svg>